<svg xmlns="http://www.w3.org/2000/svg" version="1.1" xmlns:xlink="http://www.w3.org/1999/xlink" xmlns:svgjs="http://svgjs.dev/svgjs" width="1500" height="193" viewBox="0 0 1500 193"><g transform="matrix(1,0,0,1,-0.9090909090909918,0.08377026127953968)"><svg viewBox="0 0 396 51" data-background-color="#000000" preserveAspectRatio="xMidYMid meet" height="193" width="1500" xmlns="http://www.w3.org/2000/svg" xmlns:xlink="http://www.w3.org/1999/xlink"><g id="tight-bounds" transform="matrix(1,0,0,1,0.2400000000000091,-0.0221361830324156)"><svg viewBox="0 0 395.52 51.04427236606483" height="51.04427236606483" width="395.52"><g><svg viewBox="0 0 465.921553569457 60.13002296121417" height="51.04427236606483" width="395.52"><g transform="matrix(1,0,0,1,70.40155356945701,8.310299844856665)"><svg viewBox="0 0 395.52 43.50942327150084" height="43.50942327150084" width="395.52"><g id="textblocktransform"><svg viewBox="0 0 395.52 43.50942327150084" height="43.50942327150084" width="395.52" id="textblock"><g><svg viewBox="0 0 395.52 43.50942327150084" height="43.50942327150084" width="395.52"><g transform="matrix(1,0,0,1,0,0)"><svg width="395.52" viewBox="1.9 -31.85 296.48 32.61666666666501" height="43.50942327150084" data-palette-color="#ffffff"><path d="M6-5.45L6-30.1 7.15-30 7.15-5.45Q7.15-2.85 8.08-1.73 9-0.6 11.05-0.6L11.05-0.6Q11.2-0.6 11.2-0.3 11.2 0 11.05 0L11.05 0Q9.8 0 9.15-0.05L9.15-0.05 6.65-0.1 4.1-0.05Q3.4 0 2.05 0L2.05 0Q1.95 0 1.95-0.3 1.95-0.6 2.05-0.6L2.05-0.6Q4.2-0.6 5.1-1.73 6-2.85 6-5.45L6-5.45ZM31.2 0.6Q31.2 0.7 30.95 0.75 30.7 0.8 30.6 0.7L30.6 0.7 7.6-27.15Q6-29.1 4.67-29.88 3.35-30.65 2.05-30.65L2.05-30.65Q1.9-30.65 1.9-30.95 1.9-31.25 2.05-31.25L2.05-31.25 3.9-31.2Q4.5-31.15 5.55-31.15L5.55-31.15Q6.65-31.15 7.35-31.2 8.05-31.25 8.45-31.25L8.45-31.25Q8.8-31.25 9.03-31.08 9.25-30.9 9.55-30.35L9.55-30.35Q10.15-29.45 10.8-28.65L10.8-28.65 30.8-4.1 31.2 0.6ZM31.2-25.75L31.2 0.6 30.05-0.95 30.05-25.75Q30.05-28.35 29.18-29.5 28.3-30.65 26.25-30.65L26.25-30.65Q26.15-30.65 26.15-30.95 26.15-31.25 26.25-31.25L26.25-31.25 28.2-31.2Q29.7-31.1 30.65-31.1L30.65-31.1Q31.55-31.1 33.15-31.2L33.15-31.2 35.2-31.25Q35.35-31.25 35.35-30.95 35.35-30.65 35.2-30.65L35.2-30.65Q33.1-30.65 32.15-29.5 31.2-28.35 31.2-25.75L31.2-25.75ZM45-11.5L45.8-12.4 54.9-12.4 55.25-11.5 45-11.5ZM64.15-0.6Q64.35-0.6 64.35-0.3 64.35 0 64.15 0L64.15 0Q63.25 0 61.25-0.1L61.25-0.1Q59.25-0.2 58.35-0.2L58.35-0.2Q57.55-0.2 56.25-0.1L56.25-0.1Q54.95 0 54.25 0L54.25 0Q54.05 0 54.05-0.3 54.05-0.6 54.25-0.6L54.25-0.6Q55.6-0.6 56.22-0.93 56.85-1.25 56.85-2.05L56.85-2.05Q56.85-2.75 56.2-4.2L56.2-4.2 48.6-20.6 49.9-21.7 43.65-6.15Q42.85-4.25 42.85-3L42.85-3Q42.85-1.7 43.75-1.15 44.65-0.6 46.5-0.6L46.5-0.6Q46.75-0.6 46.75-0.3 46.75 0 46.5 0L46.5 0Q45.75 0 44.45-0.1L44.45-0.1Q43.05-0.2 41.85-0.2L41.85-0.2Q40.6-0.2 38.9-0.1L38.9-0.1Q37.4 0 36.5 0L36.5 0Q36.25 0 36.25-0.3 36.25-0.6 36.5-0.6L36.5-0.6Q38.05-0.6 38.95-1.03 39.85-1.45 40.62-2.7 41.4-3.95 42.5-6.6L42.5-6.6 49.7-24.15Q49.8-24.35 50-24.35 50.2-24.35 50.25-24.15L50.25-24.15 58.3-6.85Q59.6-4.05 60.37-2.8 61.15-1.55 61.97-1.07 62.8-0.6 64.15-0.6L64.15-0.6ZM79.55-18.35Q80.4-19.9 80.4-20.9L80.4-20.9Q80.4-21.8 79.85-22.3 79.3-22.8 78.3-22.8L78.3-22.8Q78.2-22.8 78.2-23.1 78.2-23.4 78.3-23.4L78.3-23.4 80.4-23.35Q82-23.25 83.45-23.25L83.45-23.25Q84.15-23.25 85.15-23.35L85.15-23.35 86.6-23.4Q86.75-23.4 86.75-23.1 86.75-22.8 86.6-22.8L86.6-22.8Q85-22.8 83.42-21.63 81.85-20.45 80.55-18.3L80.55-18.3 75.25-9.4 74.65-9.8 79.55-18.35ZM67.85-19.25Q66.6-21.2 65.5-22 64.4-22.8 62.9-22.8L62.9-22.8Q62.8-22.8 62.8-23.1 62.8-23.4 62.9-23.4L62.9-23.4 64.5-23.35Q65.6-23.25 66.15-23.25L66.15-23.25Q67.65-23.25 69.95-23.35L69.95-23.35 72.45-23.4Q72.55-23.4 72.55-23.1 72.55-22.8 72.45-22.8L72.45-22.8Q71.35-22.8 70.75-22.5 70.15-22.2 70.15-21.65L70.15-21.65Q70.15-21.25 70.6-20.55L70.6-20.55 76.4-11.65 74.25-9.45 67.85-19.25ZM73.45-11.4L76.5-11.85 76.5-4.05Q76.5-2.5 76.8-1.8 77.1-1.1 77.97-0.85 78.85-0.6 80.8-0.6L80.8-0.6Q80.95-0.6 80.95-0.3 80.95 0 80.8 0L80.8 0Q79.25 0 78.4-0.05L78.4-0.05 74.95-0.1 71.7-0.05Q70.75 0 69.1 0L69.1 0Q68.95 0 68.95-0.3 68.95-0.6 69.1-0.6L69.1-0.6Q71-0.6 71.9-0.85 72.8-1.1 73.12-1.83 73.45-2.55 73.45-4.05L73.45-4.05 73.45-11.4ZM94.24-11.5L95.04-12.4 104.14-12.4 104.49-11.5 94.24-11.5ZM113.39-0.6Q113.59-0.6 113.59-0.3 113.59 0 113.39 0L113.39 0Q112.49 0 110.49-0.1L110.49-0.1Q108.49-0.2 107.59-0.2L107.59-0.2Q106.79-0.2 105.49-0.1L105.49-0.1Q104.19 0 103.49 0L103.49 0Q103.29 0 103.29-0.3 103.29-0.6 103.49-0.6L103.49-0.6Q104.84-0.6 105.47-0.93 106.09-1.25 106.09-2.05L106.09-2.05Q106.09-2.75 105.44-4.2L105.44-4.2 97.84-20.6 99.14-21.7 92.89-6.15Q92.09-4.25 92.09-3L92.09-3Q92.09-1.7 92.99-1.15 93.89-0.6 95.74-0.6L95.74-0.6Q95.99-0.6 95.99-0.3 95.99 0 95.74 0L95.74 0Q94.99 0 93.69-0.1L93.69-0.1Q92.29-0.2 91.09-0.2L91.09-0.2Q89.84-0.2 88.14-0.1L88.14-0.1Q86.64 0 85.74 0L85.74 0Q85.49 0 85.49-0.3 85.49-0.6 85.74-0.6L85.74-0.6Q87.29-0.6 88.19-1.03 89.09-1.45 89.87-2.7 90.64-3.95 91.74-6.6L91.74-6.6 98.94-24.15Q99.04-24.35 99.24-24.35 99.44-24.35 99.49-24.15L99.49-24.15 107.54-6.85Q108.84-4.05 109.62-2.8 110.39-1.55 111.22-1.07 112.04-0.6 113.39-0.6L113.39-0.6ZM118.44-5.45L118.44-22.3 119.44-22.15 119.44-5.45Q119.44-2.8 120.19-1.7 120.94-0.6 122.79-0.6L122.79-0.6Q122.89-0.6 122.89-0.3 122.89 0 122.79 0L122.79 0Q121.69 0 121.09-0.05L121.09-0.05 118.99-0.1 116.84-0.05Q116.19 0 115.04 0L115.04 0Q114.94 0 114.94-0.3 114.94-0.6 115.04-0.6L115.04-0.6Q116.89-0.6 117.67-1.7 118.44-2.8 118.44-5.45L118.44-5.45ZM137.09 0.55Q137.09 0.65 136.84 0.7 136.59 0.75 136.49 0.65L136.49 0.65 120.09-19.3Q118.49-21.2 117.32-22 116.14-22.8 115.04-22.8L115.04-22.8Q114.94-22.8 114.94-23.1 114.94-23.4 115.04-23.4L115.04-23.4 117.84-23.35 120.49-23.4Q120.84-23.4 121.07-23.2 121.29-23 121.74-22.35L121.74-22.35Q122.14-21.7 122.84-20.8L122.84-20.8 136.59-3.85 137.09 0.55ZM137.09-17.95L137.09 0.55 136.09-1 136.09-17.95Q136.09-20.6 135.37-21.7 134.64-22.8 132.79-22.8L132.79-22.8Q132.64-22.8 132.64-23.1 132.64-23.4 132.79-23.4L132.79-23.4 134.49-23.35Q135.79-23.25 136.59-23.25L136.59-23.25Q137.39-23.25 138.79-23.35L138.79-23.35 140.54-23.4Q140.69-23.4 140.69-23.1 140.69-22.8 140.54-22.8L140.54-22.8Q138.69-22.8 137.89-21.7 137.09-20.6 137.09-17.95L137.09-17.95ZM164.39-16.55L165.14-17.6 175.44-17.6 175.79-16.55 164.39-16.55ZM188.69-0.6Q188.89-0.6 188.89-0.3 188.89 0 188.69 0L188.69 0Q187.74 0 185.74-0.1L185.74-0.1Q183.74-0.2 182.84-0.2L182.84-0.2Q181.74-0.2 180.04-0.1L180.04-0.1Q178.44 0 177.59 0L177.59 0Q177.39 0 177.39-0.3 177.39-0.6 177.59-0.6L177.59-0.6Q179.49-0.6 180.31-0.95 181.14-1.3 181.14-2.2L181.14-2.2Q181.14-2.95 180.54-4.3L180.54-4.3 169.44-27.75 170.69-29.3 160.99-6.35Q160.29-4.65 160.29-3.55L160.29-3.55Q160.29-0.6 165.19-0.6L165.19-0.6Q165.44-0.6 165.44-0.3 165.44 0 165.19 0L165.19 0Q164.29 0 162.59-0.1L162.59-0.1Q160.69-0.2 159.29-0.2L159.29-0.2Q157.99-0.2 156.29-0.1L156.29-0.1Q154.79 0 153.79 0L153.79 0Q153.54 0 153.54-0.3 153.54-0.6 153.79-0.6L153.79-0.6Q155.19-0.6 156.16-1.13 157.14-1.65 158.01-2.98 158.89-4.3 159.94-6.8L159.94-6.8 170.49-31.7Q170.59-31.85 170.84-31.85 171.09-31.85 171.14-31.7L171.14-31.7 182.94-6.85Q184.64-3.15 185.84-1.88 187.04-0.6 188.69-0.6L188.69-0.6ZM201.13-0.6Q201.23-0.6 201.23-0.3 201.23 0 201.13 0L201.13 0Q199.73 0 198.98-0.05L198.98-0.05 195.83-0.1 192.88-0.05Q192.03 0 190.58 0L190.58 0Q190.48 0 190.48-0.3 190.48-0.6 190.58-0.6L190.58-0.6Q192.23-0.6 193.01-0.85 193.78-1.1 194.08-1.83 194.38-2.55 194.38-4.05L194.38-4.05 194.38-19.35Q194.38-20.85 194.11-21.55 193.83-22.25 193.06-22.53 192.28-22.8 190.63-22.8L190.63-22.8Q190.53-22.8 190.53-23.1 190.53-23.4 190.63-23.4L190.63-23.4 192.93-23.35Q194.73-23.25 195.83-23.25L195.83-23.25Q196.73-23.25 197.51-23.3 198.28-23.35 198.83-23.4L198.83-23.4Q200.43-23.55 201.78-23.55L201.78-23.55Q205.03-23.55 206.73-22.3 208.43-21.05 208.43-18.7L208.43-18.7Q208.43-16.65 207.23-14.9 206.03-13.15 203.93-12.13 201.83-11.1 199.33-11.1L199.33-11.1Q197.73-11.1 196.58-11.3L196.58-11.3 196.53-12.3Q197.78-11.95 199.68-11.95L199.68-11.95Q202.78-11.95 204.01-13.33 205.23-14.7 205.23-17.35L205.23-17.35Q205.23-22.85 200.48-22.85L200.48-22.85Q198.58-22.85 198.01-22.05 197.43-21.25 197.43-19.25L197.43-19.25 197.43-4.05Q197.43-2.5 197.68-1.8 197.93-1.1 198.68-0.85 199.43-0.6 201.13-0.6L201.13-0.6ZM215.98-0.6Q216.08-0.6 216.08-0.3 216.08 0 215.98 0L215.98 0 210.13 0Q209.23 0 206.88-3.1 204.53-6.2 201.28-11.6L201.28-11.6 203.93-12.65Q206.83-7.9 208.78-5.35 210.73-2.8 212.41-1.7 214.08-0.6 215.98-0.6L215.98-0.6ZM228.63 0.6Q225.13 0.6 222.41-1.05 219.68-2.7 218.18-5.5 216.68-8.3 216.68-11.55L216.68-11.55Q216.68-15.45 218.71-18.28 220.73-21.1 223.86-22.55 226.98-24 230.23-24L230.23-24Q233.73-24 236.41-22.28 239.08-20.55 240.51-17.8 241.93-15.05 241.93-12.05L241.93-12.05Q241.93-8.7 240.13-5.78 238.33-2.85 235.28-1.13 232.23 0.6 228.63 0.6L228.63 0.6ZM229.93-0.45Q233.83-0.45 236.16-3.2 238.48-5.95 238.48-10.8L238.48-10.8Q238.48-14.15 237.31-16.9 236.13-19.65 233.88-21.3 231.63-22.95 228.53-22.95L228.53-22.95Q224.53-22.95 222.33-20.28 220.13-17.6 220.13-12.8L220.13-12.8Q220.13-9.35 221.31-6.55 222.48-3.75 224.71-2.1 226.93-0.45 229.93-0.45L229.93-0.45ZM256.03-0.6Q256.13-0.6 256.13-0.3 256.13 0 256.03 0L256.03 0Q254.63 0 253.88-0.05L253.88-0.05 250.73-0.1 247.78-0.05Q246.93 0 245.48 0L245.48 0Q245.38 0 245.38-0.3 245.38-0.6 245.48-0.6L245.48-0.6Q247.13-0.6 247.9-0.85 248.68-1.1 248.98-1.83 249.28-2.55 249.28-4.05L249.28-4.05 249.28-19.35Q249.28-20.85 249-21.55 248.73-22.25 247.95-22.53 247.18-22.8 245.53-22.8L245.53-22.8Q245.43-22.8 245.43-23.1 245.43-23.4 245.53-23.4L245.53-23.4 247.83-23.35Q249.63-23.25 250.73-23.25L250.73-23.25Q251.63-23.25 252.4-23.3 253.18-23.35 253.73-23.4L253.73-23.4Q255.33-23.55 256.68-23.55L256.68-23.55Q259.93-23.55 261.63-22.3 263.33-21.05 263.33-18.7L263.33-18.7Q263.33-16.65 262.13-14.9 260.93-13.15 258.83-12.13 256.73-11.1 254.23-11.1L254.23-11.1Q252.63-11.1 251.48-11.3L251.48-11.3 251.43-12.3Q252.68-11.95 254.58-11.95L254.58-11.95Q257.68-11.95 258.9-13.33 260.13-14.7 260.13-17.35L260.13-17.35Q260.13-22.85 255.38-22.85L255.38-22.85Q253.48-22.85 252.9-22.05 252.33-21.25 252.33-19.25L252.33-19.25 252.33-4.05Q252.33-2.5 252.58-1.8 252.83-1.1 253.58-0.85 254.33-0.6 256.03-0.6L256.03-0.6ZM270.88-0.6Q270.98-0.6 270.98-0.3 270.98 0 270.88 0L270.88 0 265.03 0Q264.13 0 261.78-3.1 259.43-6.2 256.18-11.6L256.18-11.6 258.83-12.65Q261.73-7.9 263.68-5.35 265.63-2.8 267.3-1.7 268.98-0.6 270.88-0.6L270.88-0.6ZM279.02-11.5L279.82-12.4 288.93-12.4 289.27-11.5 279.02-11.5ZM298.18-0.6Q298.38-0.6 298.38-0.3 298.38 0 298.18 0L298.18 0Q297.27 0 295.27-0.1L295.27-0.1Q293.27-0.2 292.38-0.2L292.38-0.2Q291.57-0.2 290.27-0.1L290.27-0.1Q288.98 0 288.27 0L288.27 0Q288.07 0 288.07-0.3 288.07-0.6 288.27-0.6L288.27-0.6Q289.63-0.6 290.25-0.93 290.88-1.25 290.88-2.05L290.88-2.05Q290.88-2.75 290.23-4.2L290.23-4.2 282.63-20.6 283.93-21.7 277.68-6.15Q276.88-4.25 276.88-3L276.88-3Q276.88-1.7 277.77-1.15 278.68-0.6 280.52-0.6L280.52-0.6Q280.77-0.6 280.77-0.3 280.77 0 280.52 0L280.52 0Q279.77 0 278.48-0.1L278.48-0.1Q277.07-0.2 275.88-0.2L275.88-0.2Q274.63-0.2 272.93-0.1L272.93-0.1Q271.43 0 270.52 0L270.52 0Q270.27 0 270.27-0.3 270.27-0.6 270.52-0.6L270.52-0.6Q272.07-0.6 272.98-1.03 273.88-1.45 274.65-2.7 275.43-3.95 276.52-6.6L276.52-6.6 283.73-24.15Q283.82-24.35 284.02-24.35 284.23-24.35 284.27-24.15L284.27-24.15 292.32-6.85Q293.63-4.05 294.4-2.8 295.18-1.55 296-1.07 296.82-0.6 298.18-0.6L298.18-0.6Z" opacity="1" transform="matrix(1,0,0,1,0,0)" fill="#ffffff" class="wordmark-text-0" data-fill-palette-color="primary" id="text-0"></path></svg></g></svg></g></svg></g></svg></g><g><svg viewBox="0 0 60.13002296121417 60.13002296121417" height="60.13002296121417" width="60.13002296121417"><g data-palette-color="#ffffff"><rect width="16.435539609398543" height="60.13002296121417" fill="#ffffff" stroke="transparent" data-fill-palette-color="accent" x="0" fill-opacity="0.5"></rect><rect width="16.435539609398543" height="60.13002296121417" fill="#ffffff" stroke="transparent" data-fill-palette-color="accent" x="20.043340987071392" fill-opacity="0.75"></rect><rect width="16.435539609398543" height="60.13002296121417" fill="#ffffff" stroke="transparent" data-fill-palette-color="accent" x="40.086681974142785" fill-opacity="1"></rect></g></svg></g></svg></g><defs></defs></svg><rect width="395.52" height="51.04427236606483" fill="none" stroke="none" visibility="hidden"></rect></g></svg></g></svg>